<?xml version="1.0" encoding="UTF-8" standalone="no"?>
<!-- Generator: Adobe Illustrator 20.0.0, SVG Export Plug-In . SVG Version: 6.00 Build 0)  -->

<svg
   xmlns:dc="http://purl.org/dc/elements/1.1/"
   xmlns:cc="http://creativecommons.org/ns#"
   xmlns:rdf="http://www.w3.org/1999/02/22-rdf-syntax-ns#"
   xmlns:svg="http://www.w3.org/2000/svg"
   xmlns="http://www.w3.org/2000/svg"
   xmlns:sodipodi="http://sodipodi.sourceforge.net/DTD/sodipodi-0.dtd"
   xmlns:inkscape="http://www.inkscape.org/namespaces/inkscape"
   version="1.1"
   id="Ebene_1"
   x="0px"
   y="0px"
   viewBox="0 0 740.25052 214.88126"
   xml:space="preserve"
   inkscape:version="0.91 r13725"
   sodipodi:docname="logo.svg"
   width="740.25055"
   height="214.88127"><metadata
     id="metadata213"><rdf:RDF><cc:Work
         rdf:about=""><dc:format>image/svg+xml</dc:format><dc:type
           rdf:resource="http://purl.org/dc/dcmitype/StillImage" /><dc:title></dc:title></cc:Work></rdf:RDF></metadata><defs
     id="defs211" /><sodipodi:namedview
     pagecolor="#ffffff"
     bordercolor="#666666"
     borderopacity="1"
     objecttolerance="10"
     gridtolerance="10"
     guidetolerance="10"
     inkscape:pageopacity="0"
     inkscape:pageshadow="2"
     inkscape:window-width="1855"
     inkscape:window-height="1056"
     id="namedview209"
     showgrid="false"
     fit-margin-top="0"
     fit-margin-left="0"
     fit-margin-right="0"
     fit-margin-bottom="0"
     inkscape:zoom="0.16651379"
     inkscape:cx="692.40989"
     inkscape:cy="-481.07475"
     inkscape:window-x="65"
     inkscape:window-y="24"
     inkscape:window-maximized="1"
     inkscape:current-layer="Ebene_1" /><style
     type="text/css"
     id="style3">
	.st0{fill:#312783;}
	.st1{fill:#009640;}
	.st2{fill:#FFFFFF;}
	.st3{fill:none;}
</style><g
     id="g5"
     transform="translate(-244.44947,-601.23386)"><path
       d="m 473,675.9 c -6.4,-3.3 -12.8,-4.9 -19.3,-4.9 -5.7,0 -8.6,1.7 -8.6,5.2 0,1.4 0.4,2.4 1.1,2.9 0.8,0.5 2.5,1.1 5.1,1.7 l 10.1,2.5 c 6.5,1.6 11.1,3.9 13.9,7 2.8,3.1 4.2,7 4.2,11.7 0,6.1 -2.4,10.9 -7.2,14.5 -4.8,3.6 -11.3,5.4 -19.5,5.4 -9,0 -17.1,-1.8 -24.3,-5.4 l 3.1,-14.3 c 7.3,3.8 14.2,5.7 20.5,5.7 7,0 10.5,-1.6 10.5,-4.8 0,-2.3 -2.6,-4.1 -7.7,-5.4 l -9.3,-2.4 c -6,-1.5 -10.3,-3.7 -13.1,-6.5 -2.7,-2.8 -4.1,-6.6 -4.1,-11.5 0,-6.1 2.3,-11.1 7,-14.9 4.7,-3.8 11.2,-5.6 19.6,-5.6 3.9,0 8,0.5 12.2,1.4 4.2,0.9 7.6,2 10.2,3.2 l -4.4,14.5 z"
       id="path7"
       inkscape:connector-curvature="0" /><path
       d="m 550.5,658.1 -26,63.2 c -3.3,8.2 -6.8,14.1 -10.7,17.7 -3.9,3.6 -9.2,5.4 -15.9,5.4 -5.3,0 -10.1,-1.4 -14.4,-4.2 l 2.5,-13.5 c 4.3,2.4 8.3,3.6 11.9,3.6 2.6,0 4.7,-0.6 6.2,-1.9 1.5,-1.2 2.9,-3.3 4.2,-6.2 l 1.3,-3.2 -28.5,-61 18.6,0 17.2,44.3 16.6,-44.3 17,0 z"
       id="path9"
       inkscape:connector-curvature="0" /><path
       d="m 573.4,658.1 0,6.9 c 5.2,-5.4 12,-8.1 20.5,-8.1 10.1,0 17,3.5 21,10.4 5.6,-6.9 13.2,-10.3 22.9,-10.3 8.1,0 14,2.5 17.9,7.6 3.9,5.1 5.8,11.8 5.8,20.1 l 0,36 -16.8,0 0,-33.3 c 0,-10 -4.2,-15 -12.6,-15 -7.2,0 -12,3.2 -14.5,9.6 l 0,38.7 -16.8,0 0,-33.4 c 0,-9.9 -4.2,-14.9 -12.6,-14.9 -7.3,0 -12.2,3.3 -14.9,9.8 l 0,38.4 -16.8,0 0,-62.6 16.9,0 z"
       id="path11"
       inkscape:connector-curvature="0" /><path
       d="m 679.4,665.9 c 6.3,-6.3 14.4,-9.5 24,-9.5 9.8,0 17.9,3.1 24.3,9.4 6.3,6.3 9.5,14.2 9.5,23.8 0,9.4 -3.2,17.2 -9.5,23.5 -6.3,6.2 -14.4,9.3 -24.3,9.3 -9.7,0 -17.7,-3.1 -24,-9.3 -6.3,-6.2 -9.5,-14.1 -9.5,-23.5 0,-9.5 3.2,-17.4 9.5,-23.7 z m 11.5,36.2 c 3.2,3.4 7.4,5 12.5,5 5.2,0 9.4,-1.7 12.7,-5 3.3,-3.4 4.9,-7.5 4.9,-12.5 0,-5.1 -1.6,-9.4 -4.9,-12.8 -3.3,-3.4 -7.5,-5.1 -12.7,-5.1 -5.1,0 -9.3,1.7 -12.5,5.1 -3.2,3.4 -4.8,7.6 -4.8,12.8 0,4.9 1.6,9.1 4.8,12.5 z"
       id="path13"
       inkscape:connector-curvature="0" /><path
       d="m 763,658.1 0,7.7 c 5.3,-5.8 12.2,-8.7 20.7,-8.7 8.1,0 14.1,2.6 18.1,7.7 4,5.1 6,11.8 6,20 l 0,36 -16.8,0 0,-33.3 c 0,-10 -4.3,-15 -12.8,-15 -3.8,0 -7,1.1 -9.6,3.2 -2.6,2.2 -4.4,4.8 -5.6,7.8 l 0,37.2 -16.8,0 0,-62.6 16.8,0 z"
       id="path15"
       inkscape:connector-curvature="0" /><path
       d="m 828.2,632.1 c 6.4,0 9.6,2.8 9.6,8.3 0,5.6 -3.2,8.4 -9.6,8.4 -6.5,0 -9.8,-2.8 -9.8,-8.4 0,-5.5 3.3,-8.3 9.8,-8.3 z m -8.5,26 16.8,0 0,62.6 -16.8,0 0,-62.6 z"
       id="path17"
       inkscape:connector-curvature="0" /><path
       d="m 854.6,665.8 c 6.3,-6.2 14.4,-9.3 24.3,-9.3 9.3,0 17.3,2.9 23.8,8.6 l -8.3,12.3 c -4.2,-3.8 -9.2,-5.6 -14.9,-5.6 -5.3,0 -9.5,1.6 -12.6,4.9 -3.2,3.2 -4.7,7.5 -4.7,12.8 0,5.3 1.6,9.5 4.7,12.8 3.2,3.3 7.4,4.9 12.6,4.9 5.7,0 10.6,-1.9 14.9,-5.6 l 8.3,12.3 c -6.5,5.7 -14.5,8.6 -23.8,8.6 -9.9,0 -18,-3.1 -24.3,-9.4 -6.3,-6.3 -9.5,-14.2 -9.5,-23.7 0,-9.5 3.2,-17.4 9.5,-23.6 z"
       id="path19"
       inkscape:connector-curvature="0" /><path
       d="m 952.4,675.9 c -6.4,-3.3 -12.8,-4.9 -19.3,-4.9 -5.8,0 -8.6,1.7 -8.6,5.2 0,1.4 0.4,2.4 1.1,2.9 0.8,0.5 2.5,1.1 5.1,1.7 l 10.1,2.5 c 6.5,1.6 11.1,3.9 13.9,7 2.8,3.1 4.2,7 4.2,11.7 0,6.1 -2.4,10.9 -7.2,14.5 -4.8,3.6 -11.3,5.4 -19.5,5.4 -9,0 -17.1,-1.8 -24.3,-5.4 l 3.1,-14.3 c 7.3,3.8 14.2,5.7 20.5,5.7 7,0 10.5,-1.6 10.5,-4.8 0,-2.3 -2.6,-4.1 -7.7,-5.4 l -9.3,-2.4 c -6,-1.5 -10.3,-3.7 -13.1,-6.5 -2.7,-2.8 -4.1,-6.6 -4.1,-11.5 0,-6.1 2.3,-11.1 7,-14.9 4.7,-3.8 11.2,-5.6 19.6,-5.6 3.9,0 8,0.5 12.2,1.4 4.2,0.9 7.6,2 10.2,3.2 l -4.4,14.5 z"
       id="path21"
       inkscape:connector-curvature="0" /></g><path
     class="st0"
     d="M 3.7505339,124.56614 C -9.049466,76.366144 12.750534,32.166144 41.350534,12.466144 c 9.9,-6.8000005 17.1,-10.1000005 30.9,-12.00000049 17.8,-2.40000001 30.499996,4.89999999 39.799996,12.00000049 6.1,4.7 11.5,13.4 3.9,20.9 -19.999996,12.9 -46.599996,17.5 -68.199996,29.8 -10.2,5.8 -19.5,12.9 -27.3,21.7 -8.9,9.900001 -16.3000001,21.899996 -16.7000001,39.699996"
     id="path23"
     inkscape:connector-curvature="0"
     style="fill:#312783" /><path
     class="st0"
     d="m 41.050534,79.766144 c 6,13.400001 16.1,26.699996 22.5,40.899996 3.1,6.9 8.9,19.7 2.5,27 -5.7,6.6 -19.6,5.1 -28.1,2 -10.3,-3.9 -26.3,-17.4 -21.1,-35.9 4,-14.799995 13.1,-25.599995 24.2,-33.999996"
     id="path25"
     inkscape:connector-curvature="0"
     style="fill:#312783" /><path
     class="st1"
     d="m 95.250534,135.16614 c -5.9,-12.9 -16.9,-27.7 -23.4,-41.999995 -3.8,-8.300001 -8.3,-22.500001 1.1,-27.800001 4.1,-2.3 12.3,-3 17.8,-1.4 17.099996,4.9 33.099996,17.1 27.599996,40.399996 -4.1,12.6 -13.4,23.7 -23.099996,30.8"
     id="path27"
     inkscape:connector-curvature="0"
     style="fill:#009640" /><path
     class="st1"
     d="m 131.75053,89.866145 c 5.4,18.299995 5,39.799995 0,56.799995 -4.6,15.7 -13.3,30.2 -22.5,41.7 -9.399996,11.8 -19.699996,23.1 -38.399996,25.9 -18.4,2.7 -39.3,-3.8 -49.3,-13.4 -2.2,-2.1 -5.1,-5.7 -5.3,-9.2 -0.1,-1.9 0.6,-4 1.3,-5.5 0.1,-0.3 0.2,-0.5 0.4,-0.8 1.1,-2.2 3,-3.6 5.2,-4.8 0.1,-0.1 0.3,-0.2 0.5,-0.3 20.8,-11.8 46.3,-17.7 67.1,-29.5 10.499996,-6 20.199996,-14.3 27.599996,-23.7 7.4,-9.4 13.8,-21.8 13.4,-37.199995"
     id="path29"
     inkscape:connector-curvature="0"
     style="fill:#009640" /><g
     id="g173"
     transform="translate(-16.240136,-12.694005)" /><g
     id="g175"
     transform="translate(-16.240136,-12.694005)" /><g
     id="g177"
     transform="translate(-244.44947,-601.23386)"><rect
       x="761.20001"
       y="741.59998"
       class="st3"
       width="223.5"
       height="61.400002"
       id="rect179"
       style="fill:none" /><path
       d="m 765.6,748.1 9,0 0,28.2 15.8,0 0,6.8 -24.9,0 0,-35 z"
       id="path181"
       inkscape:connector-curvature="0" /><path
       d="m 795.8,746.6 8.4,0 0,6.8 -8.4,0 0,-6.8 z m 0,10.3 8.4,0 0,26.3 -8.4,0 0,-26.3 z"
       id="path183"
       inkscape:connector-curvature="0" /><path
       d="m 830.1,778.7 c -1.2,1.5 -2.4,2.7 -3.8,3.4 -1.4,0.7 -3,1.1 -4.8,1.1 -3.2,0 -5.9,-1.3 -7.9,-3.8 -2,-2.5 -3.1,-5.7 -3.1,-9.6 0,-3.9 1,-7.1 3.1,-9.6 2.1,-2.5 4.7,-3.8 7.9,-3.8 1.8,0 3.4,0.4 4.8,1.1 1.4,0.7 2.7,1.9 3.8,3.4 l 0,-3.9 8.4,0 0,23.6 c 0,4.2 -1.3,7.4 -4,9.7 -2.7,2.3 -6.5,3.3 -11.6,3.3 -1.6,0 -3.2,-0.1 -4.8,-0.4 -1.6,-0.3 -3.1,-0.6 -4.6,-1.1 l 0,-6.5 c 1.5,0.8 2.9,1.5 4.3,1.9 1.4,0.4 2.8,0.6 4.2,0.6 2.8,0 4.8,-0.6 6,-1.8 1.2,-1.2 1.9,-3.1 1.9,-5.6 l 0,-2 z m -5.5,-16.4 c -1.7,0 -3.1,0.6 -4.1,1.9 -1,1.3 -1.5,3.1 -1.5,5.4 0,2.4 0.5,4.2 1.4,5.5 0.9,1.3 2.3,1.9 4.1,1.9 1.8,0 3.1,-0.6 4.1,-1.9 1,-1.3 1.5,-3.1 1.5,-5.4 0,-2.3 -0.5,-4.2 -1.5,-5.4 -1,-1.2 -2.2,-2 -4,-2 z"
       id="path185"
       inkscape:connector-curvature="0" /><path
       d="m 873,767.1 0,16 -8.4,0 0,-2.6 0,-9.6 c 0,-2.3 -0.1,-3.9 -0.2,-4.7 -0.1,-0.8 -0.3,-1.5 -0.5,-1.9 -0.3,-0.5 -0.8,-1 -1.3,-1.3 -0.5,-0.3 -1.2,-0.5 -1.9,-0.5 -1.8,0 -3.1,0.7 -4.1,2 -1,1.3 -1.5,3.2 -1.5,5.6 l 0,12.9 -8.4,0 0,-36.5 8.4,0 0,14.1 c 1.3,-1.5 2.6,-2.7 4,-3.4 1.4,-0.7 3,-1.1 4.7,-1.1 3,0 5.3,0.9 6.9,2.8 1.6,1.9 2.3,4.7 2.3,8.2 z"
       id="path187"
       inkscape:connector-curvature="0" /><path
       d="m 890,749.4 0,7.5 8.6,0 0,6 -8.6,0 0,11.1 c 0,1.2 0.2,2 0.7,2.5 0.5,0.5 1.4,0.6 2.9,0.6 l 4.3,0 0,6 -7.2,0 c -3.3,0 -5.7,-0.7 -7,-2.1 -1.3,-1.4 -2.1,-3.7 -2.1,-7 l 0,-11.1 -4.2,0 0,-6 4.2,0 0,-7.5 8.4,0 z"
       id="path189"
       inkscape:connector-curvature="0" /><path
       d="m 903.8,746.6 8.4,0 0,6.8 -8.4,0 0,-6.8 z m 0,10.3 8.4,0 0,26.3 -8.4,0 0,-26.3 z"
       id="path191"
       inkscape:connector-curvature="0" /><path
       d="m 946.6,767.1 0,16 -8.4,0 0,-2.6 0,-9.6 c 0,-2.3 -0.1,-3.8 -0.2,-4.7 -0.1,-0.9 -0.3,-1.5 -0.5,-1.9 -0.3,-0.5 -0.8,-1 -1.3,-1.3 -0.5,-0.3 -1.2,-0.5 -1.9,-0.5 -1.8,0 -3.1,0.7 -4.1,2 -1,1.3 -1.5,3.2 -1.5,5.6 l 0,12.9 -8.4,0 0,-26.3 8.4,0 0,3.8 c 1.3,-1.5 2.6,-2.7 4,-3.4 1.4,-0.7 3,-1.1 4.7,-1.1 3,0 5.3,0.9 6.9,2.8 1.6,1.9 2.3,4.8 2.3,8.3 z"
       id="path193"
       inkscape:connector-curvature="0" /><path
       d="m 972.2,778.7 c -1.2,1.5 -2.4,2.7 -3.8,3.4 -1.4,0.7 -3,1.1 -4.8,1.1 -3.2,0 -5.9,-1.3 -7.9,-3.8 -2,-2.5 -3.1,-5.7 -3.1,-9.6 0,-3.9 1,-7.1 3.1,-9.6 2.1,-2.5 4.7,-3.8 7.9,-3.8 1.8,0 3.4,0.4 4.8,1.1 1.4,0.7 2.7,1.9 3.8,3.4 l 0,-3.9 8.4,0 0,23.6 c 0,4.2 -1.3,7.4 -4,9.7 -2.7,2.3 -6.5,3.3 -11.6,3.3 -1.6,0 -3.2,-0.1 -4.8,-0.4 -1.6,-0.3 -3.1,-0.6 -4.6,-1.1 l 0,-6.5 c 1.5,0.8 2.9,1.5 4.3,1.9 1.4,0.4 2.8,0.6 4.2,0.6 2.8,0 4.8,-0.6 6,-1.8 1.2,-1.2 1.9,-3.1 1.9,-5.6 l 0,-2 z m -5.5,-16.4 c -1.7,0 -3.1,0.6 -4.1,1.9 -1,1.3 -1.5,3.1 -1.5,5.4 0,2.4 0.5,4.2 1.4,5.5 0.9,1.3 2.3,1.9 4.1,1.9 1.8,0 3.1,-0.6 4.1,-1.9 1,-1.3 1.5,-3.1 1.5,-5.4 0,-2.3 -0.5,-4.2 -1.5,-5.4 -1,-1.2 -2.2,-2 -4,-2 z"
       id="path195"
       inkscape:connector-curvature="0" /></g><g
     id="g197"
     transform="translate(-16.240136,-12.694005)" /><g
     id="g199"
     transform="translate(-16.240136,-12.694005)" /><g
     id="g201"
     transform="translate(-16.240136,-12.694005)" /><g
     id="g203"
     transform="translate(-16.240136,-12.694005)" /><g
     id="g205"
     transform="translate(-16.240136,-12.694005)" /><g
     id="g207"
     transform="translate(-16.240136,-12.694005)" /></svg>